# AST/ASF file generated using VICON BodyLanguage
# -----------------------------------------------
:version 1.10
:name VICON
:units
  mass 1.0
  length 0.45
  angle deg
:documentation
   .ast/.asf automatically generated from VICON data using
   VICON BodyBuilder and BodyLanguage model FoxedUp or BRILLIANT.MOD
:root
   order TX TY TZ RX RY RZ
   axis XYZ
   position 0 0 0  
   orientation 0 0 0 
:bonedata
  begin
     id 1 
     name lhipjoint
     direction 0.64773 -0.699417 0.302095 
     length 2.48597 
     axis 0 0 0  XYZ
  end
  begin
     id 2 
     name lfemur
     direction 0.34202 -0.939693 0  
     length 6.71947  
     axis 0 0 20  XYZ
    dof rx ry rz
    limits (-160.0 20.0)
           (-70.0 70.0)
           (-60.0 70.0)
  end
  begin
     id 3 
     name ltibia
     direction 0.34202 -0.939693 0   
     length 8.08777   
     axis 0 0 20   XYZ
    dof rx
    limits (-10.0 170.0)
  end
  begin
     id 4 
     name lfoot
     direction 0.0808503 -0.222134 0.971658   
     length 2.08264   
     axis -90 7.62852e-016 20   XYZ
    dof rx rz
    limits (-45.0 90.0)
           (-70.0 20.0)
  end
  begin
     id 5 
     name ltoes
     direction 1.53502e-011 -4.22007e-011 1   
     length 1.04662   
     axis -90 7.62852e-016 20   XYZ
    dof rx
    limits (-90.0 20.0)
  end
  begin
     id 6 
     name rhipjoint
     direction -0.610924 -0.726792 0.313919   
     length 2.39233  
     axis 0 0 0  XYZ 
  end
  begin
     id 7 
     name rfemur
     direction -0.34202 -0.939693 0   
     length 6.96955   
     axis 0 0 -20   XYZ
    dof rx ry rz
    limits (-160.0 20.0)
           (-70.0 70.0)
           (-70.0 60.0)
  end
  begin
     id 8 
     name rtibia
     direction -0.34202 -0.939693 0   
     length 8.19584   
     axis 0 0 -20   XYZ
    dof rx
    limits (-10.0 170.0)
 end
 begin
     id 9 
     name rfoot
     direction -0.077777 -0.213691 0.9738   
     length 2.07539  
     axis -90 -7.62852e-016 -20   XYZ
    dof rx rz
    limits (-45.0 90.0)
           (-20.0 70.0)
  end
  begin
     id 10 
     name rtoes
     direction -1.53558e-011 -4.22006e-011 1   
     length 1.04381   
     axis -90 -7.62852e-016 -20   XYZ
    dof rx
    limits (-90.0 20.0)
  end
  begin
     id 11 
     name lowerback
     direction -0.00971646 0.996074 0.0879841   
     length 1.67643   
     axis 0 0 0   XYZ
    dof rx ry rz
    limits (-20.0 45.0)
           (-30.0 30.0)
           (-30.0 30.0)
  end
  begin
     id 12 
     name upperback
     direction 0.0127391 0.991676 0.128127   
     length 1.63741   
     axis 0 0 0   XYZ
    dof rx ry rz
    limits (-20.0 45.0)
           (-30.0 30.0)
           (-30.0 30.0)
  end
  begin
     id 13 
     name thorax
     direction 0.0167583 0.996049 0.0872067   
     length 1.65931   
     axis 0 0 0   XYZ
    dof rx ry rz
    limits (-20.0 45.0)
           (-30.0 30.0)
           (-30.0 30.0)
  end
  begin
     id 14 
     name lowerneck
     direction -0.0317829 0.998312 0.0486079   
     length 1.79021   
     axis 0 0 0   XYZ
    dof rx ry rz
    limits (-20.0 45.0)
           (-30.0 30.0)
           (-30.0 30.0)
  end
  begin
     id 15 
     name upperneck
     direction 0.0896851 0.972452 -0.215159   
     length 1.78797   
     axis 0 0 0   XYZ
    dof rx ry rz
    limits (-20.0 45.0)
           (-30.0 30.0)
           (-30.0 30.0)
  end
  begin
     id 16
     name head
     direction 0.0310949 0.996503 -0.0775582  
     length 1.81549  
     axis 0 0 0   XYZ
    dof rx ry rz
    limits (-20.0 45.0)
           (-30.0 30.0)
           (-30.0 30.0)
  end
  begin
     id 17 
     name lclavicle
     direction 0.853638 0.502051 -0.138733  
     length 3.31627  
     axis 0 0 0   XYZ
    dof ry rz
    limits (-20.0 10.0)
           (0.0 20.0)
  end
  begin
     id 18 
     name lhumerus
     direction 1 -4.48962e-011 -1.41788e-018   
     length 5.54893   
     axis 180 -30 -90   XYZ
    dof rx ry rz
    limits (-60.0 90.0)
           (-90.0 90.0)
           (-90.0 90.0)
  end
  begin
     id 19
     name lradius
     direction 1 -4.48962e-011 -4.95754e-027   
     length 3.02898   
     axis 180 -30 -90   XYZ
    dof rx
    limits (-10.0 170.0)
  end
  begin
     id 20
     name lwrist
     direction 1 -4.48952e-011 -1.03764e-026   
     length 1.51449   
     axis 9.09556e-015 90 90   XYZ
    dof ry
    limits (-180.0 0.0)
 end
  begin
     id 21 
     name lhand
     direction 1 -4.4902e-011 -2.07528e-026   
     length 0.640951   
     axis 1.3242e-014 90 90   XYZ
    dof rx rz
    limits (-90.0 90.0)
           (-45.0 45.0)
  end
  begin
     id 22 
     name lfingers
     direction 1 -4.49014e-011 -4.15056e-026   
     length 0.516751   
     axis 2.64841e-014 90 90   XYZ
    dof rx
    limits (0.0 90.0)
  end
  begin
     id 23
     name lthumb
     direction 0.707107 -6.35008e-011 0.707107   
     length 0.741954   
     axis -90 45 2.85299e-015   XYZ
    dof rx rz
    limits (-45.0 45.0)
           (-45.0 45.0)
  end
  begin
     id 24 
     name rclavicle
     direction -0.888531 0.455324 -0.0565039   
     length 3.20126  
     axis 0 0 0   XYZ 
    dof ry rz
    limits (-10.0 20.0)
           (-20.0 0.0)
  end
  begin
     id 25 
     name rhumerus
     direction -1 -4.48946e-011 -8.98298e-028  
     length 5.3519   
     axis 180 30 90   XYZ
    dof rx ry rz
    limits (-90.0 60.0)
           (-90.0 90.0)
           (-90.0 90.0)
  end
  begin
     id 26 
     name rradius
     direction -1 -4.4899e-011 -3.18779e-027   
     length 3.02531   
     axis 180 30 90   XYZ
    dof rx
    limits (-10.0 170.0)
  end
  begin
     id 27 
     name rwrist
     direction -1 -4.4897e-011 -1.03764e-026   
     length 1.51266   
     axis 9.09556e-015 -90 -90   XYZ
    dof ry
    limits (-180.0 0.0)
  end
  begin
     id 28
     name rhand
     direction -1 -4.48941e-011 -2.07528e-026   
     length 0.78389   
     axis 1.3242e-014 -90 -90   XYZ
    dof rx rz
    limits (-90.0 90.0)
           (-45.0 45.0)
  end
  begin
     id 29
     name rfingers
     direction -1 -4.49012e-011 -4.15056e-026   
     length 0.631992   
     axis 2.64841e-014 -90 -90   XYZ
    dof rx
    limits (0.0 90.0)
  end
  begin
     id 30
     name rthumb
     direction -0.707107 -6.3496e-011 0.707107   
     length 0.907418   
     axis -90 -45 -2.85299e-015   XYZ
    dof rx rz
    limits (-45.0 45.0)
           (-45.0 45.0)
  end
:hierarchy
  begin
    root lhipjoint rhipjoint lowerback
    lhipjoint lfemur
    lfemur ltibia
    ltibia lfoot
    lfoot ltoes
    rhipjoint rfemur
    rfemur rtibia
    rtibia rfoot
    rfoot rtoes
    lowerback upperback
    upperback thorax
    thorax lowerneck lclavicle rclavicle
    lowerneck upperneck
    upperneck head
    lclavicle lhumerus
    lhumerus lradius
    lradius lwrist
    lwrist lhand lthumb
    lhand lfingers
    rclavicle rhumerus
    rhumerus rradius
    rradius rwrist
    rwrist rhand rthumb
    rhand rfingers
  end

#!OML:ASF E:\Style3\Style3.ASF
:FULLY-SPECIFIED
:DEGREES
2222
root -0.232345 17.746 0.0245592 -168.862 64.0296 -182.061
lowerback -3.00281 1.07642 -1.61006
upperback -6.92699 1.65835 -1.96784
thorax -5.47471 0.983648 -1.18377
lowerneck -11.7325 -1.04689 -5.52521
upperneck 24.9302 0.890032 -1.36852
head 9.85383 0.0310726 0.614542
rclavicle -1.08089e-013 3.97569e-016
rhumerus 40.4254 4.7443 -21.6915
rradius 123.933
rwrist -48.139
rhand -3.34085 9.54755
rfingers 7.12502
rthumb 22.3868 -19.1753
lclavicle -1.08089e-013 3.97569e-016
lhumerus 23.9052 7.01934 48.6227
lradius 141.042
lwrist 89.3308
lhand -19.692 37.5573
lfingers 7.12502
lthumb 6.6372 67.4333
rfemur -12.6125 1.75697 16.0869
rtibia 19.5529
rfoot -18.9653 -32.8903
rtoes -1.03135
lfemur -20.0981 -18.9466 -13.3558
ltibia 13.9597
lfoot -7.85802 -1.13698
ltoes -19.9267
2223
root -0.238742 17.7483 0.0311148 -168.796 64.0745 -182.025
lowerback -2.97124 1.15919 -1.68626
upperback -6.77896 1.75761 -2.08451
thorax -5.33386 1.02943 -1.26049
lowerneck -11.5547 -1.26322 -5.55572
upperneck 24.7995 0.528078 -1.22501
head 9.77938 -0.122841 0.626029
rclavicle 1.56543e-015 8.74653e-015
rhumerus 38.9838 5.49303 -21.2185
rradius 124.902
rwrist -47.6355
rhand -2.51957 9.6903
rfingers 7.12502
rthumb 23.175 -18.9356
lclavicle 1.56543e-015 8.74653e-015
lhumerus 23.4041 7.39506 48.6312
lradius 141.559
lwrist 89.579
lhand -19.2284 37.2381
lfingers 7.12502
lthumb 7.08464 67.0995
rfemur -12.6803 1.76023 16.1035
rtibia 19.5335
rfoot -18.8083 -32.8569
rtoes -1.26858
lfemur -20.0572 -18.9651 -13.3071
ltibia 13.7777
lfoot -7.75113 -1.01359
ltoes -20.7522
2224
root -0.246506 17.7503 0.0391225 -168.838 64.102 -182.106
lowerback -2.87263 1.20913 -1.87778
upperback -6.63656 1.81181 -2.14939
thorax -5.24291 1.05969 -1.22051
lowerneck -11.2722 -1.40998 -5.43045
upperneck 24.4328 0.281318 -1.37061
head 9.60023 -0.238328 0.523958
rclavicle -9.59136e-015 9.14409e-015
rhumerus 37.5691 6.32187 -20.6323
rradius 125.774
rwrist -46.6417
rhand -2.06328 10.2958
rfingers 7.12502
rthumb 23.6127 -18.2743
lclavicle -9.59136e-015 9.14409e-015
lhumerus 22.7883 7.9411 48.5875
lradius 142.159
lwrist 89.6782
lhand -18.8127 36.8466
lfingers 7.12502
lthumb 7.48598 66.6941
rfemur -12.7091 1.73638 16.0677
rtibia 19.4565
rfoot -18.731 -32.7968
rtoes -1.1544
lfemur -20.0714 -19.0861 -13.2889
ltibia 13.6789
lfoot -7.73248 -0.809125
ltoes -21.3501
2225
root -0.253841 17.7521 0.0467197 -168.734 64.0862 -182.049
lowerback -2.77095 1.27246 -1.9997
upperback -6.51837 1.88529 -2.2118
thorax -5.17741 1.09675 -1.21806
lowerneck -10.9564 -1.51029 -5.26621
upperneck 24.087 0.086332 -1.48283
head 9.42086 -0.321704 0.4348
rclavicle -7.82715e-015 -7.15625e-015
rhumerus 36.0036 7.16401 -20.004
rradius 126.62
rwrist -45.6273
rhand -1.40425 11.028
rfingers 7.12502
rthumb 24.2447 -17.4592
lclavicle -7.82715e-015 -7.15625e-015
lhumerus 22.1384 8.53343 48.1787
lradius 142.641
lwrist 89.774
lhand -18.3168 36.1914
lfingers 7.12502
lthumb 7.96458 66.0213
rfemur -12.7528 1.72735 16.1013
rtibia 19.3624
rfoot -18.616 -32.8035
rtoes -1.24299
lfemur -20.1464 -19.2335 -13.1786
ltibia 13.6217
lfoot -7.6713 -0.642592
ltoes -21.654
2226
root -0.260464 17.7545 0.0547566 -168.374 63.9831 -181.751
lowerback -2.69615 1.28783 -2.03804
upperback -6.40656 1.89779 -2.19778
thorax -5.10338 1.10098 -1.18117
lowerneck -10.9383 -1.8575 -5.60241
upperneck 24.6258 -0.322483 -1.29973
head 9.6206 -0.521675 0.510155
rclavicle -5.11374e-014 -8.74653e-015
rhumerus 34.437 8.02756 -19.3316
rradius 127.6
rwrist -44.8378
rhand -0.407306 11.8174
rfingers 7.12502
rthumb 25.2002 -16.5388
lclavicle -5.11374e-014 -8.74653e-015
lhumerus 21.2641 9.19839 47.7116
lradius 143.143
lwrist 89.7605
lhand -18.0125 35.4832
lfingers 7.12502
lthumb 8.2583 65.3018
rfemur -12.8352 1.66816 16.2686
rtibia 19.2677
rfoot -18.454 -32.8237
rtoes -1.4609
lfemur -20.2709 -19.2866 -12.9557
ltibia 13.5504
lfoot -7.55289 -0.625264
ltoes -22.0916
2227
root -0.266859 17.7571 0.061016 -168.122 63.8465 -181.563
lowerback -2.58908 1.22865 -2.14248
upperback -6.26845 1.80919 -2.11131
thorax -5.0247 1.05832 -1.03073
lowerneck -11.2362 -1.93246 -5.95778
upperneck 25.0666 -0.364355 -1.03007
head 9.83997 -0.54916 0.65907
rclavicle 8.10669e-016 -1.74931e-014
rhumerus 33.0982 8.96743 -18.6945
rradius 128.555
rwrist -44.0021
rhand 0.702066 12.6163
rfingers 7.12502
rthumb 26.2627 -15.5861
lclavicle 8.10669e-016 -1.74931e-014
lhumerus 20.1029 9.87582 47.3372
lradius 143.672
lwrist 89.3438
lhand -17.7038 34.7268
lfingers 7.12502
lthumb 8.55616 64.5334
rfemur -12.8952 1.55483 16.387
rtibia 19.1748
rfoot -18.3385 -32.8276
rtoes -1.51104
lfemur -20.3657 -19.3372 -12.7922
ltibia 13.4406
lfoot -7.5302 -0.650346
ltoes -22.4286
2228
root -0.275856 17.7604 0.0685332 -168.072 63.8058 -181.543
lowerback -2.38061 1.21347 -2.35273
upperback -6.11531 1.77279 -2.06508
thorax -4.98992 1.04491 -0.866755
lowerneck -11.3409 -1.94951 -6.00233
upperneck 25.0987 -0.388314 -0.967316
head 9.87248 -0.560032 0.685081
rclavicle 3.47497e-014 7.15625e-015
rhumerus 31.6516 9.96084 -18.1139
rradius 129.451
rwrist -42.8572
rhand 1.78601 13.4375
rfingers 7.12502
rthumb 27.2999 -14.606
lclavicle 3.47497e-014 7.15625e-015
lhumerus 18.8734 10.4459 46.8322
lradius 144.092
lwrist 88.7633
lhand -17.0488 33.9174
lfingers 7.12502
lthumb 9.18824 63.6972
rfemur -12.9146 1.65672 16.4068
rtibia 19.0797
rfoot -18.3575 -32.9213
rtoes -1.31545
lfemur -20.3787 -19.3338 -12.7443
ltibia 13.2921
lfoot -7.46491 -0.671046
ltoes -22.5827
2229
root -0.288618 17.7645 0.0766355 -168.196 63.884 -181.705
lowerback -2.11545 1.28345 -2.60754
upperback -5.98948 1.84593 -2.11739
thorax -5.01561 1.08714 -0.785159
lowerneck -11.0871 -2.04682 -6.03189
upperneck 24.8522 -0.611747 -0.760206
head 9.7407 -0.64164 0.736142
rclavicle -1.15544e-015 7.95139e-015
rhumerus 29.8748 11.0823 -17.4328
rradius 130.249
rwrist -41.4231
rhand 2.28016 14.465
rfingers 7.12502
rthumb 27.7725 -13.5033
lclavicle -1.15544e-015 7.95139e-015
lhumerus 17.6036 10.8014 46.1408
lradius 144.397
lwrist 88.2141
lhand -16.506 32.8248
lfingers 7.12502
lthumb 9.71197 62.5808
rfemur -12.9614 1.88975 16.3035
rtibia 18.9882
rfoot -18.4023 -33.0256
rtoes -0.944775
lfemur -20.3464 -19.2865 -12.81
ltibia 13.0918
lfoot -7.31762 -0.625578
ltoes -22.8291
2230
root -0.294911 17.7682 0.0824713 -168.126 63.8482 -181.712
lowerback -1.94463 1.33035 -2.73833
upperback -5.88849 1.89449 -2.17009
thorax -5.00974 1.11245 -0.770531
lowerneck -10.7829 -2.14687 -6.07282
upperneck 24.6222 -0.836642 -0.543853
head 9.6068 -0.723449 0.792909
rclavicle 9.50439e-015 3.33958e-014
rhumerus 27.8586 12.4231 -16.5355
rradius 130.936
rwrist -39.7748
rhand 2.11892 16.0352
rfingers 7.12502
rthumb 27.6183 -11.9578
lclavicle 9.50439e-015 3.33958e-014
lhumerus 16.2465 11.0334 45.2835
lradius 144.688
lwrist 87.6071
lhand -16.0743 31.5855
lfingers 7.12502
lthumb 10.1284 61.3217
rfemur -12.9957 2.00567 16.3058
rtibia 18.8594
rfoot -18.2841 -33.1847
rtoes -1.02455
lfemur -20.3841 -19.3903 -12.733
ltibia 12.9232
lfoot -7.2051 -0.558152
ltoes -22.4207
